<svg xmlns="http://www.w3.org/2000/svg" xmlns:xlink="http://www.w3.org/1999/xlink" width="80" zoomAndPan="magnify" viewBox="0 0 60 60" height="80" preserveAspectRatio="xMidYMid meet" version="1.0"><defs><clipPath id="4d68c70cbb"><path d="M 33.300781 11.890625 L 55.757812 11.890625 L 55.757812 47 L 33.300781 47 Z M 33.300781 11.890625 " clip-rule="nonzero"/></clipPath><clipPath id="4be7d28150"><path d="M 4.011719 41 L 43 41 L 43 57 L 4.011719 57 Z M 4.011719 41 " clip-rule="nonzero"/></clipPath><clipPath id="0cb060eb8b"><path d="M 17.621094 3.9375 L 55.757812 3.9375 L 55.757812 19 L 17.621094 19 Z M 17.621094 3.9375 " clip-rule="nonzero"/></clipPath><clipPath id="102a79e845"><path d="M 4.011719 13 L 27 13 L 27 49 L 4.011719 49 Z M 4.011719 13 " clip-rule="nonzero"/></clipPath><clipPath id="458c80abbc"><path d="M 26.417969 24.90625 L 48.980469 24.90625 L 48.980469 60 L 26.417969 60 Z M 26.417969 24.90625 " clip-rule="nonzero"/></clipPath></defs><g clip-path="url(#4d68c70cbb)"><path fill="#f4f7f4" d="M 55.757812 22.929688 L 48.917969 18.964844 L 36.726562 11.894531 L 33.308594 13.878906 L 43.566406 19.828125 L 45.5 20.949219 L 52.339844 24.914062 L 52.339844 46.980469 L 55.757812 45 L 55.757812 22.929688 " fill-opacity="1" fill-rule="nonzero"/></g><g clip-path="url(#4be7d28150)"><path fill="#f4f7f4" d="M 29.890625 52.070312 L 42.082031 45 L 42.082031 41.035156 L 29.890625 48.101562 L 23.050781 52.070312 L 7.4375 43.015625 L 4.019531 41.035156 L 4.019531 45 L 23.050781 56.035156 L 29.890625 52.070312 " fill-opacity="1" fill-rule="nonzero"/></g><g clip-path="url(#0cb060eb8b)"><path fill="#f4f7f4" d="M 36.726562 3.964844 L 29.890625 7.929688 L 17.695312 15 L 17.695312 18.964844 L 29.890625 11.894531 L 36.726562 7.929688 L 52.339844 16.984375 L 55.757812 18.964844 L 55.757812 15 L 36.726562 3.964844 " fill-opacity="1" fill-rule="nonzero"/></g><g clip-path="url(#102a79e845)"><path fill="#f4f7f4" d="M 7.4375 39.050781 L 10.859375 41.035156 L 23.050781 48.101562 L 26.46875 46.121094 L 16.210938 40.171875 L 14.277344 39.050781 L 7.4375 35.085938 L 7.4375 13.015625 L 4.019531 15 L 4.019531 37.070312 L 7.4375 39.050781 " fill-opacity="1" fill-rule="nonzero"/></g><g clip-path="url(#458c80abbc)"><path fill="#f4f7f4" d="M 48.917969 26.894531 L 45.5 24.914062 L 45.5 46.980469 L 29.890625 56.035156 L 26.46875 58.015625 L 29.890625 60 L 48.917969 48.964844 L 48.917969 26.894531 " fill-opacity="1" fill-rule="nonzero"/></g><path fill="#f4f7f4" d="M 10.859375 33.101562 L 14.277344 35.085938 L 14.277344 13.015625 L 29.890625 3.964844 L 33.308594 1.984375 L 29.890625 0 L 10.859375 11.035156 L 10.859375 33.101562 " fill-opacity="1" fill-rule="nonzero"/></svg>