<svg xmlns="http://www.w3.org/2000/svg" xmlns:xlink="http://www.w3.org/1999/xlink" width="500" zoomAndPan="magnify" viewBox="0 0 375 89.999999" height="120" preserveAspectRatio="xMidYMid meet" version="1.0"><defs><g/></defs><rect x="-37.5" width="450" fill="#ffffff" y="-9" height="107.999999" fill-opacity="1"/><rect x="-37.5" width="450" fill="#ffffff" y="-9" height="107.999999" fill-opacity="1"/><rect x="-37.5" width="450" fill="#232129" y="-9" height="107.999999" fill-opacity="1"/><g fill="#f5f5f5" fill-opacity="1"><g transform="translate(22.753231, 61.874996)"><g><path d="M 2.296875 7.8125 L 11.28125 3.40625 C 12.925781 6.132812 15.796875 7.5 19.890625 7.5 C 21.785156 7.5 23.546875 6.890625 25.171875 5.671875 C 26.804688 4.453125 27.625 2.582031 27.625 0.0625 L 27.625 -2.296875 C 25.6875 -0.148438 22.21875 0.921875 17.21875 0.921875 C 12.632812 0.921875 8.851562 -0.695312 5.875 -3.9375 C 2.90625 -7.175781 1.421875 -11.148438 1.421875 -15.859375 C 1.421875 -20.566406 2.90625 -24.550781 5.875 -27.8125 C 8.851562 -31.082031 12.632812 -32.71875 17.21875 -32.71875 C 21.3125 -32.71875 24.71875 -31.457031 27.4375 -28.9375 L 27.625 -28.9375 L 27.625 -31.78125 L 38.59375 -31.78125 L 38.59375 0.875 C 38.59375 6.03125 36.878906 10.007812 33.453125 12.8125 C 30.023438 15.625 25.503906 17.03125 19.890625 17.03125 C 10.796875 17.03125 4.929688 13.957031 2.296875 7.8125 Z M 15.203125 -21.25 C 13.785156 -19.84375 13.078125 -18.046875 13.078125 -15.859375 C 13.078125 -13.671875 13.753906 -11.882812 15.109375 -10.5 C 16.472656 -9.113281 18.269531 -8.421875 20.5 -8.421875 C 22.65625 -8.421875 24.421875 -9.125 25.796875 -10.53125 C 27.179688 -11.9375 27.875 -13.710938 27.875 -15.859375 C 27.875 -18.046875 27.160156 -19.84375 25.734375 -21.25 C 24.316406 -22.65625 22.570312 -23.359375 20.5 -23.359375 C 18.394531 -23.359375 16.628906 -22.65625 15.203125 -21.25 Z M 15.203125 -21.25 "/></g></g></g><g fill="#f5f5f5" fill-opacity="1"><g transform="translate(59.245725, 61.874996)"><g><path d="M 3.71875 0 L 3.71875 -53.28125 L 14.6875 -53.28125 L 14.6875 0 Z M 3.71875 0 "/></g></g></g><g fill="#f5f5f5" fill-opacity="1"><g transform="translate(71.822804, 61.874996)"><g><path d="M 6.71875 -3.78125 C 3.1875 -6.914062 1.421875 -10.941406 1.421875 -15.859375 C 1.421875 -20.773438 3.257812 -24.8125 6.9375 -27.96875 C 10.613281 -31.132812 15.15625 -32.71875 20.5625 -32.71875 C 25.894531 -32.71875 30.390625 -31.125 34.046875 -27.9375 C 37.703125 -24.757812 39.53125 -20.734375 39.53125 -15.859375 C 39.53125 -10.984375 37.742188 -6.96875 34.171875 -3.8125 C 30.597656 -0.65625 26.0625 0.921875 20.5625 0.921875 C 14.863281 0.921875 10.25 -0.644531 6.71875 -3.78125 Z M 15.203125 -21.25 C 13.785156 -19.84375 13.078125 -18.046875 13.078125 -15.859375 C 13.078125 -13.671875 13.753906 -11.882812 15.109375 -10.5 C 16.472656 -9.113281 18.269531 -8.421875 20.5 -8.421875 C 22.65625 -8.421875 24.421875 -9.125 25.796875 -10.53125 C 27.179688 -11.9375 27.875 -13.710938 27.875 -15.859375 C 27.875 -18.046875 27.160156 -19.84375 25.734375 -21.25 C 24.316406 -22.65625 22.570312 -23.359375 20.5 -23.359375 C 18.394531 -23.359375 16.628906 -22.65625 15.203125 -21.25 Z M 15.203125 -21.25 "/></g></g></g><g fill="#f5f5f5" fill-opacity="1"><g transform="translate(106.952251, 61.874996)"><g><path d="M 23.234375 0 L 15.796875 0 L -1.234375 -31.78125 L 11.40625 -31.78125 L 19.140625 -14.625 L 26.765625 -31.78125 L 34.328125 -31.78125 L 41.9375 -14.625 L 49.6875 -31.78125 L 62.328125 -31.78125 L 45.28125 0 L 37.859375 0 L 30.546875 -16.421875 Z M 23.234375 0 "/></g></g></g><g fill="#f5f5f5" fill-opacity="1"><g transform="translate(162.217735, 61.874996)"><g><path d="M 5.875 -3.9375 C 2.90625 -7.175781 1.421875 -11.148438 1.421875 -15.859375 C 1.421875 -20.566406 2.90625 -24.550781 5.875 -27.8125 C 8.851562 -31.082031 12.632812 -32.71875 17.21875 -32.71875 C 21.4375 -32.71875 24.90625 -31.394531 27.625 -28.75 L 27.625 -31.78125 L 38.59375 -31.78125 L 38.59375 0 L 27.75 0 L 27.75 -3.59375 L 27.625 -3.59375 C 24.90625 -0.582031 21.4375 0.921875 17.21875 0.921875 C 12.632812 0.921875 8.851562 -0.695312 5.875 -3.9375 Z M 15.203125 -21.25 C 13.785156 -19.84375 13.078125 -18.046875 13.078125 -15.859375 C 13.078125 -13.671875 13.753906 -11.882812 15.109375 -10.5 C 16.472656 -9.113281 18.269531 -8.421875 20.5 -8.421875 C 22.65625 -8.421875 24.421875 -9.125 25.796875 -10.53125 C 27.179688 -11.9375 27.875 -13.710938 27.875 -15.859375 C 27.875 -18.046875 27.160156 -19.84375 25.734375 -21.25 C 24.316406 -22.65625 22.570312 -23.359375 20.5 -23.359375 C 18.394531 -23.359375 16.628906 -22.65625 15.203125 -21.25 Z M 15.203125 -21.25 "/></g></g></g><g fill="#f5f5f5" fill-opacity="1"><g transform="translate(198.71023, 61.874996)"><g><path d="M 20.625 -23.734375 C 18.5625 -23.734375 16.785156 -22.96875 15.296875 -21.4375 C 13.816406 -19.90625 13.078125 -18.066406 13.078125 -15.921875 C 13.078125 -13.734375 13.816406 -11.875 15.296875 -10.34375 C 16.785156 -8.8125 18.5625 -8.046875 20.625 -8.046875 C 21.625 -8.046875 22.566406 -8.171875 23.453125 -8.421875 C 24.335938 -8.671875 24.988281 -8.921875 25.40625 -9.171875 L 25.953125 -9.546875 L 29.671875 -1.921875 C 29.378906 -1.710938 28.972656 -1.453125 28.453125 -1.140625 C 27.941406 -0.835938 26.765625 -0.421875 24.921875 0.109375 C 23.085938 0.648438 21.117188 0.921875 19.015625 0.921875 C 14.347656 0.921875 10.25 -0.71875 6.71875 -4 C 3.1875 -7.28125 1.421875 -11.210938 1.421875 -15.796875 C 1.421875 -20.421875 3.1875 -24.394531 6.71875 -27.71875 C 10.25 -31.050781 14.347656 -32.71875 19.015625 -32.71875 C 21.117188 -32.71875 23.054688 -32.46875 24.828125 -31.96875 C 26.609375 -31.46875 27.875 -30.972656 28.625 -30.484375 L 29.671875 -29.734375 L 25.953125 -22.234375 C 24.585938 -23.234375 22.8125 -23.734375 20.625 -23.734375 Z M 20.625 -23.734375 "/></g></g></g><g fill="#f5f5f5" fill-opacity="1"><g transform="translate(223.306969, 61.874996)"><g><path d="M 34.453125 -31.78125 L 18.703125 -8.359375 L 33.203125 -8.359375 L 33.203125 0 L 0.3125 0 L 16.046875 -23.421875 L 2.90625 -23.421875 L 2.90625 -31.78125 Z M 34.453125 -31.78125 "/></g></g></g><g fill="#f5f5f5" fill-opacity="1"><g transform="translate(252.240722, 61.874996)"><g/></g></g><g fill="#87017c" fill-opacity="1"><g transform="translate(263.327441, 61.874996)"><g><path d="M 10.78125 -13.265625 C 12.757812 -13.265625 14.441406 -12.570312 15.828125 -11.1875 C 17.210938 -9.800781 17.90625 -8.117188 17.90625 -6.140625 C 17.90625 -4.191406 17.210938 -2.523438 15.828125 -1.140625 C 14.441406 0.234375 12.757812 0.921875 10.78125 0.921875 C 8.84375 0.921875 7.179688 0.234375 5.796875 -1.140625 C 4.410156 -2.523438 3.71875 -4.191406 3.71875 -6.140625 C 3.71875 -8.117188 4.410156 -9.800781 5.796875 -11.1875 C 7.179688 -12.570312 8.84375 -13.265625 10.78125 -13.265625 Z M 10.78125 -13.265625 "/></g></g></g><g fill="#87017c" fill-opacity="1"><g transform="translate(279.126282, 61.874996)"><g/></g></g><g fill="#f5f5f5" fill-opacity="1"><g transform="translate(290.210252, 61.874996)"><g><path d="M 17.53125 -32.71875 C 19.351562 -32.71875 21.148438 -32.507812 22.921875 -32.09375 C 24.703125 -31.675781 26.023438 -31.265625 26.890625 -30.859375 L 28.1875 -30.234375 L 24.59375 -23.046875 C 22.113281 -24.367188 19.757812 -25.03125 17.53125 -25.03125 C 16.289062 -25.03125 15.410156 -24.894531 14.890625 -24.625 C 14.378906 -24.351562 14.125 -23.847656 14.125 -23.109375 C 14.125 -22.941406 14.144531 -22.773438 14.1875 -22.609375 C 14.226562 -22.441406 14.3125 -22.285156 14.4375 -22.140625 C 14.5625 -22.003906 14.675781 -21.882812 14.78125 -21.78125 C 14.882812 -21.675781 15.054688 -21.5625 15.296875 -21.4375 C 15.546875 -21.3125 15.742188 -21.21875 15.890625 -21.15625 C 16.035156 -21.09375 16.269531 -21 16.59375 -20.875 C 16.925781 -20.75 17.175781 -20.65625 17.34375 -20.59375 C 17.507812 -20.53125 17.785156 -20.4375 18.171875 -20.3125 C 18.566406 -20.195312 18.867188 -20.117188 19.078125 -20.078125 C 20.359375 -19.703125 21.472656 -19.285156 22.421875 -18.828125 C 23.378906 -18.378906 24.382812 -17.757812 25.4375 -16.96875 C 26.488281 -16.1875 27.300781 -15.195312 27.875 -14 C 28.457031 -12.800781 28.75 -11.4375 28.75 -9.90625 C 28.75 -2.6875 23.726562 0.921875 13.6875 0.921875 C 11.414062 0.921875 9.257812 0.570312 7.21875 -0.125 C 5.175781 -0.820312 3.695312 -1.523438 2.78125 -2.234375 L 1.421875 -3.34375 L 5.890625 -10.84375 C 6.210938 -10.550781 6.640625 -10.207031 7.171875 -9.8125 C 7.710938 -9.425781 8.6875 -8.890625 10.09375 -8.203125 C 11.5 -7.523438 12.71875 -7.1875 13.75 -7.1875 C 16.019531 -7.1875 17.15625 -7.953125 17.15625 -9.484375 C 17.15625 -10.179688 16.863281 -10.722656 16.28125 -11.109375 C 15.707031 -11.503906 14.726562 -11.953125 13.34375 -12.453125 C 11.96875 -12.953125 10.882812 -13.40625 10.09375 -13.8125 C 8.113281 -14.84375 6.546875 -16.007812 5.390625 -17.3125 C 4.234375 -18.613281 3.65625 -20.335938 3.65625 -22.484375 C 3.65625 -25.710938 4.90625 -28.222656 7.40625 -30.015625 C 9.90625 -31.816406 13.28125 -32.71875 17.53125 -32.71875 Z M 17.53125 -32.71875 "/></g></g></g><g fill="#f5f5f5" fill-opacity="1"><g transform="translate(314.868949, 61.874996)"><g><path d="M 35.875 -14.375 L 12.828125 -14.375 C 12.828125 -12.144531 13.546875 -10.492188 14.984375 -9.421875 C 16.429688 -8.347656 18.003906 -7.8125 19.703125 -7.8125 C 21.472656 -7.8125 22.875 -8.046875 23.90625 -8.515625 C 24.945312 -8.992188 26.125 -9.9375 27.4375 -11.34375 L 35.375 -7.375 C 32.070312 -1.84375 26.578125 0.921875 18.890625 0.921875 C 14.097656 0.921875 9.988281 -0.71875 6.5625 -4 C 3.132812 -7.28125 1.421875 -11.234375 1.421875 -15.859375 C 1.421875 -20.484375 3.132812 -24.445312 6.5625 -27.75 C 9.988281 -31.0625 14.097656 -32.71875 18.890625 -32.71875 C 23.929688 -32.71875 28.03125 -31.257812 31.1875 -28.34375 C 34.351562 -25.425781 35.9375 -21.265625 35.9375 -15.859375 C 35.9375 -15.117188 35.914062 -14.625 35.875 -14.375 Z M 13.140625 -20.4375 L 25.21875 -20.4375 C 24.96875 -22.09375 24.316406 -23.363281 23.265625 -24.25 C 22.210938 -25.144531 20.859375 -25.59375 19.203125 -25.59375 C 17.390625 -25.59375 15.945312 -25.113281 14.875 -24.15625 C 13.800781 -23.207031 13.222656 -21.96875 13.140625 -20.4375 Z M 13.140625 -20.4375 "/></g></g></g></svg>