<svg xmlns="http://www.w3.org/2000/svg" xmlns:xlink="http://www.w3.org/1999/xlink" width="500" zoomAndPan="magnify" viewBox="0 0 375 89.999999" height="120" preserveAspectRatio="xMidYMid meet" version="1.0"><defs><g/></defs><rect x="-37.5" width="450" fill="#ffffff" y="-9" height="107.999999" fill-opacity="1"/><rect x="-37.5" width="450" fill="#ffffff" y="-9" height="107.999999" fill-opacity="1"/><rect x="-37.5" width="450" fill="#232129" y="-9" height="107.999999" fill-opacity="1"/><g fill="#f5f5f5" fill-opacity="1"><g transform="translate(1.284482, 61.874996)"><g><path d="M 2.296875 7.8125 L 11.28125 3.40625 C 12.925781 6.132812 15.796875 7.5 19.890625 7.5 C 21.785156 7.5 23.546875 6.890625 25.171875 5.671875 C 26.804688 4.453125 27.625 2.582031 27.625 0.0625 L 27.625 -2.296875 C 25.6875 -0.148438 22.21875 0.921875 17.21875 0.921875 C 12.632812 0.921875 8.851562 -0.695312 5.875 -3.9375 C 2.90625 -7.175781 1.421875 -11.148438 1.421875 -15.859375 C 1.421875 -20.566406 2.90625 -24.550781 5.875 -27.8125 C 8.851562 -31.082031 12.632812 -32.71875 17.21875 -32.71875 C 21.3125 -32.71875 24.71875 -31.457031 27.4375 -28.9375 L 27.625 -28.9375 L 27.625 -31.78125 L 38.59375 -31.78125 L 38.59375 0.875 C 38.59375 6.03125 36.878906 10.007812 33.453125 12.8125 C 30.023438 15.625 25.503906 17.03125 19.890625 17.03125 C 10.796875 17.03125 4.929688 13.957031 2.296875 7.8125 Z M 15.203125 -21.25 C 13.785156 -19.84375 13.078125 -18.046875 13.078125 -15.859375 C 13.078125 -13.671875 13.753906 -11.882812 15.109375 -10.5 C 16.472656 -9.113281 18.269531 -8.421875 20.5 -8.421875 C 22.65625 -8.421875 24.421875 -9.125 25.796875 -10.53125 C 27.179688 -11.9375 27.875 -13.710938 27.875 -15.859375 C 27.875 -18.046875 27.160156 -19.84375 25.734375 -21.25 C 24.316406 -22.65625 22.570312 -23.359375 20.5 -23.359375 C 18.394531 -23.359375 16.628906 -22.65625 15.203125 -21.25 Z M 15.203125 -21.25 "/></g></g></g><g fill="#f5f5f5" fill-opacity="1"><g transform="translate(37.776976, 61.874996)"><g><path d="M 14.0625 -31.78125 L 14.0625 -16.671875 C 14.0625 -13.523438 14.535156 -11.289062 15.484375 -9.96875 C 16.429688 -8.644531 18.039062 -7.984375 20.3125 -7.984375 C 22.59375 -7.984375 24.207031 -8.644531 25.15625 -9.96875 C 26.101562 -11.289062 26.578125 -13.523438 26.578125 -16.671875 L 26.578125 -31.78125 L 37.546875 -31.78125 L 37.546875 -14 C 37.546875 -8.71875 36.171875 -4.910156 33.421875 -2.578125 C 30.671875 -0.242188 26.300781 0.921875 20.3125 0.921875 C 14.332031 0.921875 9.96875 -0.242188 7.21875 -2.578125 C 4.46875 -4.910156 3.09375 -8.71875 3.09375 -14 L 3.09375 -31.78125 Z M 14.0625 -31.78125 "/></g></g></g><g fill="#f5f5f5" fill-opacity="1"><g transform="translate(72.596631, 61.874996)"><g><path d="M 6.71875 -3.78125 C 3.1875 -6.914062 1.421875 -10.941406 1.421875 -15.859375 C 1.421875 -20.773438 3.257812 -24.8125 6.9375 -27.96875 C 10.613281 -31.132812 15.15625 -32.71875 20.5625 -32.71875 C 25.894531 -32.71875 30.390625 -31.125 34.046875 -27.9375 C 37.703125 -24.757812 39.53125 -20.734375 39.53125 -15.859375 C 39.53125 -10.984375 37.742188 -6.96875 34.171875 -3.8125 C 30.597656 -0.65625 26.0625 0.921875 20.5625 0.921875 C 14.863281 0.921875 10.25 -0.644531 6.71875 -3.78125 Z M 15.203125 -21.25 C 13.785156 -19.84375 13.078125 -18.046875 13.078125 -15.859375 C 13.078125 -13.671875 13.753906 -11.882812 15.109375 -10.5 C 16.472656 -9.113281 18.269531 -8.421875 20.5 -8.421875 C 22.65625 -8.421875 24.421875 -9.125 25.796875 -10.53125 C 27.179688 -11.9375 27.875 -13.710938 27.875 -15.859375 C 27.875 -18.046875 27.160156 -19.84375 25.734375 -21.25 C 24.316406 -22.65625 22.570312 -23.359375 20.5 -23.359375 C 18.394531 -23.359375 16.628906 -22.65625 15.203125 -21.25 Z M 15.203125 -21.25 "/></g></g></g><g fill="#f5f5f5" fill-opacity="1"><g transform="translate(107.726077, 61.874996)"><g><path d="M 11.765625 -31.78125 L 19.515625 -14.5 L 27.265625 -31.78125 L 40.265625 -31.78125 L 23.234375 0 L 15.796875 0 L -1.234375 -31.78125 Z M 11.765625 -31.78125 "/></g></g></g><g fill="#f5f5f5" fill-opacity="1"><g transform="translate(140.934849, 61.874996)"><g><path d="M 5.875 -3.9375 C 2.90625 -7.175781 1.421875 -11.148438 1.421875 -15.859375 C 1.421875 -20.566406 2.90625 -24.550781 5.875 -27.8125 C 8.851562 -31.082031 12.632812 -32.71875 17.21875 -32.71875 C 21.4375 -32.71875 24.90625 -31.394531 27.625 -28.75 L 27.625 -31.78125 L 38.59375 -31.78125 L 38.59375 0 L 27.75 0 L 27.75 -3.59375 L 27.625 -3.59375 C 24.90625 -0.582031 21.4375 0.921875 17.21875 0.921875 C 12.632812 0.921875 8.851562 -0.695312 5.875 -3.9375 Z M 15.203125 -21.25 C 13.785156 -19.84375 13.078125 -18.046875 13.078125 -15.859375 C 13.078125 -13.671875 13.753906 -11.882812 15.109375 -10.5 C 16.472656 -9.113281 18.269531 -8.421875 20.5 -8.421875 C 22.65625 -8.421875 24.421875 -9.125 25.796875 -10.53125 C 27.179688 -11.9375 27.875 -13.710938 27.875 -15.859375 C 27.875 -18.046875 27.160156 -19.84375 25.734375 -21.25 C 24.316406 -22.65625 22.570312 -23.359375 20.5 -23.359375 C 18.394531 -23.359375 16.628906 -22.65625 15.203125 -21.25 Z M 15.203125 -21.25 "/></g></g></g><g fill="#f5f5f5" fill-opacity="1"><g transform="translate(177.427344, 61.874996)"><g><path d="M 20.625 -23.734375 C 18.5625 -23.734375 16.785156 -22.96875 15.296875 -21.4375 C 13.816406 -19.90625 13.078125 -18.066406 13.078125 -15.921875 C 13.078125 -13.734375 13.816406 -11.875 15.296875 -10.34375 C 16.785156 -8.8125 18.5625 -8.046875 20.625 -8.046875 C 21.625 -8.046875 22.566406 -8.171875 23.453125 -8.421875 C 24.335938 -8.671875 24.988281 -8.921875 25.40625 -9.171875 L 25.953125 -9.546875 L 29.671875 -1.921875 C 29.378906 -1.710938 28.972656 -1.453125 28.453125 -1.140625 C 27.941406 -0.835938 26.765625 -0.421875 24.921875 0.109375 C 23.085938 0.648438 21.117188 0.921875 19.015625 0.921875 C 14.347656 0.921875 10.25 -0.71875 6.71875 -4 C 3.1875 -7.28125 1.421875 -11.210938 1.421875 -15.796875 C 1.421875 -20.421875 3.1875 -24.394531 6.71875 -27.71875 C 10.25 -31.050781 14.347656 -32.71875 19.015625 -32.71875 C 21.117188 -32.71875 23.054688 -32.46875 24.828125 -31.96875 C 26.609375 -31.46875 27.875 -30.972656 28.625 -30.484375 L 29.671875 -29.734375 L 25.953125 -22.234375 C 24.585938 -23.234375 22.8125 -23.734375 20.625 -23.734375 Z M 20.625 -23.734375 "/></g></g></g><g fill="#f5f5f5" fill-opacity="1"><g transform="translate(202.024095, 61.874996)"><g><path d="M 3.71875 0 L 3.71875 -53.28125 L 14.6875 -53.28125 L 14.6875 -28.4375 L 14.8125 -28.4375 C 17.65625 -31.289062 20.6875 -32.71875 23.90625 -32.71875 C 25.476562 -32.71875 27.039062 -32.507812 28.59375 -32.09375 C 30.144531 -31.675781 31.628906 -31.035156 33.046875 -30.171875 C 34.472656 -29.304688 35.628906 -28.078125 36.515625 -26.484375 C 37.410156 -24.890625 37.859375 -23.039062 37.859375 -20.9375 L 37.859375 0 L 26.890625 0 L 26.890625 -17.96875 C 26.890625 -19.613281 26.363281 -21.054688 25.3125 -22.296875 C 24.257812 -23.535156 22.882812 -24.15625 21.1875 -24.15625 C 19.53125 -24.15625 18.03125 -23.515625 16.6875 -22.234375 C 15.351562 -20.960938 14.6875 -19.539062 14.6875 -17.96875 L 14.6875 0 Z M 3.71875 0 "/></g></g></g><g fill="#87017c" fill-opacity="1"><g transform="translate(237.147754, 61.874996)"><g><path d="M 10.78125 -13.265625 C 12.757812 -13.265625 14.441406 -12.570312 15.828125 -11.1875 C 17.210938 -9.800781 17.90625 -8.117188 17.90625 -6.140625 C 17.90625 -4.191406 17.210938 -2.523438 15.828125 -1.140625 C 14.441406 0.234375 12.757812 0.921875 10.78125 0.921875 C 8.84375 0.921875 7.179688 0.234375 5.796875 -1.140625 C 4.410156 -2.523438 3.71875 -4.191406 3.71875 -6.140625 C 3.71875 -8.117188 4.410156 -9.800781 5.796875 -11.1875 C 7.179688 -12.570312 8.84375 -13.265625 10.78125 -13.265625 Z M 10.78125 -13.265625 "/></g></g></g><g fill="#f5f5f5" fill-opacity="1"><g transform="translate(252.944629, 61.874996)"><g><path d="M 20.625 -23.734375 C 18.5625 -23.734375 16.785156 -22.96875 15.296875 -21.4375 C 13.816406 -19.90625 13.078125 -18.066406 13.078125 -15.921875 C 13.078125 -13.734375 13.816406 -11.875 15.296875 -10.34375 C 16.785156 -8.8125 18.5625 -8.046875 20.625 -8.046875 C 21.625 -8.046875 22.566406 -8.171875 23.453125 -8.421875 C 24.335938 -8.671875 24.988281 -8.921875 25.40625 -9.171875 L 25.953125 -9.546875 L 29.671875 -1.921875 C 29.378906 -1.710938 28.972656 -1.453125 28.453125 -1.140625 C 27.941406 -0.835938 26.765625 -0.421875 24.921875 0.109375 C 23.085938 0.648438 21.117188 0.921875 19.015625 0.921875 C 14.347656 0.921875 10.25 -0.71875 6.71875 -4 C 3.1875 -7.28125 1.421875 -11.210938 1.421875 -15.796875 C 1.421875 -20.421875 3.1875 -24.394531 6.71875 -27.71875 C 10.25 -31.050781 14.347656 -32.71875 19.015625 -32.71875 C 21.117188 -32.71875 23.054688 -32.46875 24.828125 -31.96875 C 26.609375 -31.46875 27.875 -30.972656 28.625 -30.484375 L 29.671875 -29.734375 L 25.953125 -22.234375 C 24.585938 -23.234375 22.8125 -23.734375 20.625 -23.734375 Z M 20.625 -23.734375 "/></g></g></g><g fill="#f5f5f5" fill-opacity="1"><g transform="translate(277.541368, 61.874996)"><g><path d="M 6.71875 -3.78125 C 3.1875 -6.914062 1.421875 -10.941406 1.421875 -15.859375 C 1.421875 -20.773438 3.257812 -24.8125 6.9375 -27.96875 C 10.613281 -31.132812 15.15625 -32.71875 20.5625 -32.71875 C 25.894531 -32.71875 30.390625 -31.125 34.046875 -27.9375 C 37.703125 -24.757812 39.53125 -20.734375 39.53125 -15.859375 C 39.53125 -10.984375 37.742188 -6.96875 34.171875 -3.8125 C 30.597656 -0.65625 26.0625 0.921875 20.5625 0.921875 C 14.863281 0.921875 10.25 -0.644531 6.71875 -3.78125 Z M 15.203125 -21.25 C 13.785156 -19.84375 13.078125 -18.046875 13.078125 -15.859375 C 13.078125 -13.671875 13.753906 -11.882812 15.109375 -10.5 C 16.472656 -9.113281 18.269531 -8.421875 20.5 -8.421875 C 22.65625 -8.421875 24.421875 -9.125 25.796875 -10.53125 C 27.179688 -11.9375 27.875 -13.710938 27.875 -15.859375 C 27.875 -18.046875 27.160156 -19.84375 25.734375 -21.25 C 24.316406 -22.65625 22.570312 -23.359375 20.5 -23.359375 C 18.394531 -23.359375 16.628906 -22.65625 15.203125 -21.25 Z M 15.203125 -21.25 "/></g></g></g><g fill="#f5f5f5" fill-opacity="1"><g transform="translate(312.670814, 61.874996)"><g><path d="M 3.71875 0 L 3.71875 -31.78125 L 14.6875 -31.78125 L 14.6875 -28.4375 L 14.8125 -28.4375 C 17.65625 -31.289062 20.6875 -32.71875 23.90625 -32.71875 C 26.226562 -32.71875 28.398438 -32.238281 30.421875 -31.28125 C 32.441406 -30.332031 33.96875 -28.867188 35 -26.890625 C 38.21875 -30.773438 41.726562 -32.71875 45.53125 -32.71875 C 48.914062 -32.71875 51.828125 -31.765625 54.265625 -29.859375 C 56.703125 -27.960938 57.921875 -24.988281 57.921875 -20.9375 L 57.921875 0 L 46.953125 0 L 46.953125 -17.96875 C 46.953125 -19.65625 46.488281 -21.066406 45.5625 -22.203125 C 44.632812 -23.335938 43.242188 -23.90625 41.390625 -23.90625 C 39.773438 -23.90625 38.539062 -23.421875 37.6875 -22.453125 C 36.84375 -21.484375 36.378906 -20.316406 36.296875 -18.953125 L 36.296875 0 L 25.34375 0 L 25.34375 -17.96875 C 25.34375 -19.65625 24.875 -21.066406 23.9375 -22.203125 C 23.007812 -23.335938 21.617188 -23.90625 19.765625 -23.90625 C 18.066406 -23.90625 16.796875 -23.378906 15.953125 -22.328125 C 15.109375 -21.273438 14.6875 -20.023438 14.6875 -18.578125 L 14.6875 0 Z M 3.71875 0 "/></g></g></g></svg>