<svg xmlns="http://www.w3.org/2000/svg" xmlns:xlink="http://www.w3.org/1999/xlink" width="80" zoomAndPan="magnify" viewBox="0 0 60 60" height="80" preserveAspectRatio="xMidYMid meet" version="1.0"><defs><clipPath id="c2fc5d123a"><path d="M 33.332031 13.148438 L 54.488281 13.148438 L 54.488281 46.0625 L 33.332031 46.0625 Z M 33.332031 13.148438 " clip-rule="nonzero"/></clipPath><clipPath id="ae530052cd"><path d="M 5.742188 40 L 42 40 L 42 55 L 5.742188 55 Z M 5.742188 40 " clip-rule="nonzero"/></clipPath><clipPath id="59b04942f3"><path d="M 18.5625 5.691406 L 54.488281 5.691406 L 54.488281 19.851562 L 18.5625 19.851562 Z M 18.5625 5.691406 " clip-rule="nonzero"/></clipPath><clipPath id="5c59d561ee"><path d="M 5.742188 14 L 27 14 L 27 48 L 5.742188 48 Z M 5.742188 14 " clip-rule="nonzero"/></clipPath><clipPath id="c51a34ec3e"><path d="M 26.851562 25.347656 L 48.101562 25.347656 L 48.101562 58.25 L 26.851562 58.25 Z M 26.851562 25.347656 " clip-rule="nonzero"/></clipPath></defs><g clip-path="url(#c2fc5d123a)"><path fill="#545454" d="M 54.488281 23.496094 L 48.046875 19.777344 L 36.5625 13.152344 L 33.339844 15.011719 L 43.003906 20.585938 L 44.824219 21.636719 L 51.269531 25.355469 L 51.269531 46.042969 L 54.488281 44.1875 L 54.488281 23.496094 " fill-opacity="1" fill-rule="nonzero"/></g><g clip-path="url(#ae530052cd)"><path fill="#545454" d="M 30.121094 50.8125 L 41.605469 44.1875 L 41.605469 40.46875 L 30.121094 47.09375 L 23.679688 50.8125 L 8.972656 42.328125 L 5.753906 40.46875 L 5.753906 44.1875 L 23.679688 54.53125 L 30.121094 50.8125 " fill-opacity="1" fill-rule="nonzero"/></g><g clip-path="url(#59b04942f3)"><path fill="#545454" d="M 36.5625 5.714844 L 30.121094 9.433594 L 18.636719 16.0625 L 18.636719 19.777344 L 30.121094 13.152344 L 36.5625 9.433594 L 51.269531 17.921875 L 54.488281 19.777344 L 54.488281 16.0625 L 36.5625 5.714844 " fill-opacity="1" fill-rule="nonzero"/></g><g clip-path="url(#5c59d561ee)"><path fill="#545454" d="M 8.972656 38.609375 L 12.195312 40.46875 L 23.679688 47.097656 L 26.898438 45.238281 L 17.238281 39.660156 L 15.414062 38.609375 L 8.972656 34.890625 L 8.972656 14.203125 L 5.753906 16.0625 L 5.753906 36.75 L 8.972656 38.609375 " fill-opacity="1" fill-rule="nonzero"/></g><g clip-path="url(#c51a34ec3e)"><path fill="#545454" d="M 48.046875 27.214844 L 44.824219 25.355469 L 44.824219 46.042969 L 30.121094 54.53125 L 26.898438 56.390625 L 30.121094 58.25 L 48.046875 47.902344 L 48.046875 27.214844 " fill-opacity="1" fill-rule="nonzero"/></g><path fill="#545454" d="M 12.195312 33.035156 L 15.414062 34.890625 L 15.414062 14.203125 L 30.121094 5.714844 L 33.339844 3.859375 L 30.121094 2 L 12.195312 12.34375 L 12.195312 33.035156 " fill-opacity="1" fill-rule="nonzero"/></svg>