<svg xmlns="http://www.w3.org/2000/svg" xmlns:xlink="http://www.w3.org/1999/xlink" width="100" zoomAndPan="magnify" viewBox="0 0 75 74.999997" height="100" preserveAspectRatio="xMidYMid meet" version="1.0"><defs><clipPath id="b2e0fa01da"><path d="M 7.5 27 L 67.5 27 L 67.5 47.863281 L 7.5 47.863281 Z M 7.5 27 " clip-rule="nonzero"/></clipPath></defs><g clip-path="url(#b2e0fa01da)"><path fill="#092e20" d="M 14.59375 27.011719 L 17.875 27.011719 L 17.875 42.011719 C 16.191406 42.328125 14.957031 42.453125 13.613281 42.453125 C 9.605469 42.453125 7.515625 40.664062 7.515625 37.234375 C 7.515625 33.929688 9.734375 31.785156 13.164062 31.785156 C 13.699219 31.785156 14.101562 31.828125 14.59375 31.953125 Z M 14.59375 34.5625 C 14.210938 34.4375 13.890625 34.394531 13.484375 34.394531 C 11.824219 34.394531 10.863281 35.40625 10.863281 37.171875 C 10.863281 38.898438 11.78125 39.84375 13.464844 39.84375 C 13.84375 39.84375 14.21875 39.816406 14.59375 39.761719 Z M 23.097656 32.015625 L 23.097656 39.53125 C 23.097656 42.117188 22.90625 43.359375 22.335938 44.433594 C 21.804688 45.464844 21.101562 46.117188 19.652344 46.832031 L 16.601562 45.402344 C 18.050781 44.726562 18.753906 44.140625 19.203125 43.234375 C 19.671875 42.308594 19.820312 41.234375 19.820312 38.414062 L 19.820312 32.023438 Z M 19.816406 27.03125 L 23.097656 27.03125 L 23.097656 30.359375 L 19.816406 30.359375 Z M 25.078125 32.753906 C 26.53125 32.078125 27.910156 31.785156 29.429688 31.785156 C 31.113281 31.785156 32.222656 32.226562 32.710938 33.089844 C 32.984375 33.574219 33.074219 34.207031 33.074219 35.554688 L 33.074219 42.144531 C 31.601562 42.355469 29.746094 42.5 28.382812 42.5 C 25.636719 42.5 24.398438 41.554688 24.398438 39.449219 C 24.398438 37.175781 26.039062 36.121094 30.066406 35.789062 L 30.066406 35.074219 C 30.066406 34.484375 29.769531 34.265625 28.9375 34.265625 C 27.722656 34.265625 26.359375 34.605469 25.082031 35.257812 L 25.082031 32.75 Z M 30.214844 37.910156 C 28.042969 38.121094 27.332031 38.457031 27.332031 39.296875 C 27.332031 39.929688 27.738281 40.222656 28.640625 40.222656 C 29.128906 40.222656 29.578125 40.183594 30.214844 40.078125 Z M 34.675781 32.523438 C 36.617188 32.015625 38.214844 31.785156 39.835938 31.785156 C 41.519531 31.785156 42.734375 32.164062 43.460938 32.902344 C 44.140625 33.597656 44.355469 34.355469 44.355469 35.972656 L 44.355469 42.328125 L 41.070312 42.328125 L 41.070312 36.097656 C 41.070312 34.859375 40.644531 34.394531 39.472656 34.394531 C 39.023438 34.394531 38.621094 34.4375 37.960938 34.625 L 37.960938 42.328125 L 34.671875 42.328125 Z M 45.625 44.097656 C 46.777344 44.6875 47.925781 44.957031 49.140625 44.957031 C 51.292969 44.957031 52.210938 44.097656 52.210938 42.035156 L 52.210938 41.96875 C 51.570312 42.285156 50.933594 42.414062 50.078125 42.414062 C 47.195312 42.414062 45.367188 40.539062 45.367188 37.574219 C 45.367188 33.890625 48.074219 31.804688 52.871094 31.804688 C 54.277344 31.804688 55.578125 31.953125 57.15625 32.269531 L 56.03125 34.605469 C 55.15625 34.4375 55.960938 34.585938 55.300781 34.519531 L 55.300781 34.859375 L 55.34375 36.226562 L 55.363281 37.992188 C 55.386719 38.4375 55.386719 38.878906 55.410156 39.320312 L 55.410156 40.203125 C 55.410156 42.980469 55.175781 44.285156 54.472656 45.359375 C 53.449219 46.9375 51.679688 47.722656 49.164062 47.722656 C 47.886719 47.722656 46.777344 47.53125 45.625 47.089844 Z M 52.152344 34.417969 L 51.8125 34.417969 C 51.171875 34.394531 50.425781 34.5625 49.914062 34.878906 C 49.125 35.320312 48.722656 36.121094 48.722656 37.257812 C 48.722656 38.878906 49.535156 39.804688 50.980469 39.804688 C 51.429688 39.804688 51.796875 39.71875 52.214844 39.59375 L 52.214844 38.476562 C 52.214844 38.097656 52.195312 37.671875 52.195312 37.234375 L 52.171875 35.742188 L 52.152344 34.667969 L 52.152344 34.414062 Z M 62.25 31.742188 C 65.53125 31.742188 67.535156 33.785156 67.535156 37.089844 C 67.535156 40.472656 65.449219 42.601562 62.121094 42.601562 C 58.839844 42.601562 56.816406 40.5625 56.816406 37.277344 C 56.816406 33.871094 58.902344 31.746094 62.25 31.746094 Z M 62.1875 39.992188 C 63.445312 39.992188 64.191406 38.960938 64.191406 37.171875 C 64.191406 35.402344 63.464844 34.355469 62.207031 34.355469 C 60.902344 34.355469 60.160156 35.386719 60.160156 37.171875 C 60.160156 38.960938 60.90625 39.992188 62.1875 39.992188 Z M 62.1875 39.992188 " fill-opacity="1" fill-rule="nonzero"/></g></svg>