<svg xmlns="http://www.w3.org/2000/svg" xmlns:xlink="http://www.w3.org/1999/xlink" width="100" zoomAndPan="magnify" viewBox="0 0 75 74.999997" height="100" preserveAspectRatio="xMidYMid meet" version="1.0"><defs><clipPath id="f44bdc0d9e"><path d="M 55 7.5 L 61 7.5 L 61 12 L 55 12 Z M 55 7.5 " clip-rule="nonzero"/></clipPath><clipPath id="490bdb3523"><path d="M 50 63 L 55 63 L 55 67.5 L 50 67.5 Z M 50 63 " clip-rule="nonzero"/></clipPath><clipPath id="1c575ce2d6"><path d="M 8.550781 55 L 13 55 L 13 60 L 8.550781 60 Z M 8.550781 55 " clip-rule="nonzero"/></clipPath><clipPath id="f5267f7a7a"><path d="M 62 44 L 66.300781 44 L 66.300781 49 L 62 49 Z M 62 44 " clip-rule="nonzero"/></clipPath><clipPath id="d05156b46b"><path d="M 13 7.5 L 18 7.5 L 18 12 L 13 12 Z M 13 7.5 " clip-rule="nonzero"/></clipPath></defs><path fill="#dadcde" d="M 43.613281 23.027344 C 43.433594 23.027344 43.25 22.976562 43.097656 22.886719 C 42.605469 22.601562 42.4375 21.96875 42.722656 21.476562 L 49.941406 9.070312 C 50.121094 8.75 50.46875 8.554688 50.832031 8.554688 L 55.988281 8.554688 C 56.554688 8.554688 57.019531 9.019531 57.019531 9.589844 C 57.019531 10.15625 56.554688 10.621094 55.988281 10.621094 L 51.425781 10.621094 L 44.5 22.511719 C 44.308594 22.847656 43.960938 23.027344 43.613281 23.027344 Z M 43.613281 23.027344 " fill-opacity="1" fill-rule="nonzero"/><path fill="#dadcde" d="M 50.832031 66.445312 L 46.707031 66.445312 C 46.203125 66.445312 45.777344 66.082031 45.6875 65.578125 L 43.625 53.175781 C 43.535156 52.605469 43.910156 52.074219 44.476562 51.984375 C 45.042969 51.894531 45.570312 52.269531 45.664062 52.839844 L 47.582031 64.378906 L 50.832031 64.378906 C 51.398438 64.378906 51.863281 64.84375 51.863281 65.410156 C 51.863281 65.980469 51.398438 66.445312 50.832031 66.445312 Z M 50.832031 66.445312 " fill-opacity="1" fill-rule="nonzero"/><path fill="#dadcde" d="M 10.613281 57.140625 C 10.046875 57.140625 9.582031 56.675781 9.582031 56.109375 L 9.582031 50.9375 C 9.582031 50.628906 9.722656 50.332031 9.96875 50.136719 L 20.28125 41.867188 C 20.730469 41.503906 21.375 41.582031 21.722656 42.023438 C 22.085938 42.476562 22.007812 43.121094 21.570312 43.46875 L 11.644531 51.429688 L 11.644531 56.109375 C 11.644531 56.675781 11.179688 57.140625 10.613281 57.140625 Z M 10.613281 57.140625 " fill-opacity="1" fill-rule="nonzero"/><path fill="#dadcde" d="M 21.957031 23.027344 C 21.761719 23.027344 21.554688 22.976562 21.390625 22.859375 L 15.203125 18.722656 C 14.917969 18.53125 14.738281 18.207031 14.738281 17.859375 L 14.738281 10.621094 C 14.738281 10.054688 15.203125 9.589844 15.769531 9.589844 C 16.335938 9.589844 16.800781 10.054688 16.800781 10.621094 L 16.800781 17.304688 L 22.523438 21.128906 C 23 21.449219 23.128906 22.085938 22.808594 22.5625 C 22.613281 22.871094 22.292969 23.027344 21.957031 23.027344 Z M 21.957031 23.027344 " fill-opacity="1" fill-rule="nonzero"/><path fill="#dadcde" d="M 62.175781 47.835938 L 51.863281 47.835938 C 51.296875 47.835938 50.832031 47.371094 50.832031 46.804688 C 50.832031 46.234375 51.296875 45.769531 51.863281 45.769531 L 62.175781 45.769531 C 62.742188 45.769531 63.207031 46.234375 63.207031 46.804688 C 63.207031 47.371094 62.742188 47.835938 62.175781 47.835938 Z M 62.175781 47.835938 " fill-opacity="1" fill-rule="nonzero"/><path fill="#3397e8" d="M 60.113281 40.601562 L 60.113281 34.398438 L 55.730469 34.398438 C 55.238281 31.503906 54.105469 28.84375 52.457031 26.566406 L 54.957031 24.0625 L 50.832031 19.925781 L 48.332031 22.433594 C 46.0625 20.792969 43.40625 19.640625 40.519531 19.152344 L 40.519531 14.757812 L 34.332031 14.757812 L 34.332031 19.152344 C 31.445312 19.640625 28.789062 20.777344 26.519531 22.433594 L 24.019531 19.925781 L 19.894531 24.0625 L 22.394531 26.566406 C 20.757812 28.84375 19.609375 31.503906 19.121094 34.398438 L 14.738281 34.398438 L 14.738281 40.601562 L 19.121094 40.601562 C 19.609375 43.496094 20.746094 46.15625 22.394531 48.433594 L 19.894531 50.9375 L 24.019531 55.074219 L 26.519531 52.566406 C 28.789062 54.222656 31.445312 55.371094 34.332031 55.847656 L 34.332031 60.242188 L 40.519531 60.242188 L 40.519531 55.847656 C 43.40625 55.359375 46.0625 54.222656 48.332031 52.566406 L 50.832031 55.074219 L 54.957031 50.9375 L 52.457031 48.433594 C 54.105469 46.15625 55.253906 43.496094 55.730469 40.601562 Z M 60.113281 40.601562 " fill-opacity="1" fill-rule="nonzero"/><path fill="#e9eef2" d="M 51.863281 37.5 C 51.863281 38.449219 51.769531 39.390625 51.585938 40.324219 C 51.398438 41.253906 51.125 42.160156 50.761719 43.039062 C 50.402344 43.917969 49.957031 44.75 49.429688 45.539062 C 48.902344 46.332031 48.304688 47.0625 47.632812 47.734375 C 46.964844 48.40625 46.234375 49.003906 45.445312 49.535156 C 44.65625 50.0625 43.824219 50.507812 42.949219 50.871094 C 42.074219 51.234375 41.171875 51.507812 40.242188 51.695312 C 39.3125 51.878906 38.371094 51.972656 37.425781 51.972656 C 36.476562 51.972656 35.539062 51.878906 34.609375 51.695312 C 33.679688 51.507812 32.777344 51.234375 31.898438 50.871094 C 31.023438 50.507812 30.191406 50.0625 29.402344 49.535156 C 28.617188 49.003906 27.886719 48.40625 27.214844 47.734375 C 26.546875 47.0625 25.949219 46.332031 25.421875 45.539062 C 24.894531 44.75 24.449219 43.917969 24.085938 43.039062 C 23.722656 42.160156 23.449219 41.253906 23.265625 40.324219 C 23.078125 39.390625 22.988281 38.449219 22.988281 37.5 C 22.988281 36.550781 23.078125 35.609375 23.265625 34.675781 C 23.449219 33.746094 23.722656 32.839844 24.085938 31.960938 C 24.449219 31.082031 24.894531 30.25 25.421875 29.460938 C 25.949219 28.667969 26.546875 27.9375 27.214844 27.265625 C 27.886719 26.59375 28.617188 25.996094 29.402344 25.464844 C 30.191406 24.9375 31.023438 24.492188 31.898438 24.128906 C 32.777344 23.765625 33.679688 23.492188 34.609375 23.304688 C 35.539062 23.121094 36.476562 23.027344 37.425781 23.027344 C 38.371094 23.027344 39.3125 23.121094 40.242188 23.304688 C 41.171875 23.492188 42.074219 23.765625 42.949219 24.128906 C 43.824219 24.492188 44.65625 24.9375 45.445312 25.464844 C 46.234375 25.996094 46.964844 26.59375 47.632812 27.265625 C 48.304688 27.9375 48.902344 28.667969 49.429688 29.460938 C 49.957031 30.25 50.402344 31.082031 50.761719 31.960938 C 51.125 32.839844 51.398438 33.746094 51.585938 34.675781 C 51.769531 35.609375 51.863281 36.550781 51.863281 37.5 Z M 51.863281 37.5 " fill-opacity="1" fill-rule="nonzero"/><g clip-path="url(#f44bdc0d9e)"><path fill="#3397e8" d="M 60.113281 9.589844 C 60.113281 9.863281 60.058594 10.125 59.957031 10.378906 C 59.851562 10.632812 59.703125 10.855469 59.507812 11.050781 C 59.316406 11.246094 59.09375 11.394531 58.839844 11.5 C 58.585938 11.601562 58.324219 11.65625 58.050781 11.65625 C 57.777344 11.65625 57.511719 11.601562 57.261719 11.5 C 57.007812 11.394531 56.785156 11.246094 56.589844 11.050781 C 56.398438 10.855469 56.25 10.632812 56.144531 10.378906 C 56.039062 10.125 55.988281 9.863281 55.988281 9.589844 C 55.988281 9.3125 56.039062 9.050781 56.144531 8.796875 C 56.25 8.542969 56.398438 8.320312 56.589844 8.125 C 56.785156 7.933594 57.007812 7.785156 57.261719 7.679688 C 57.511719 7.574219 57.777344 7.519531 58.050781 7.519531 C 58.324219 7.519531 58.585938 7.574219 58.839844 7.679688 C 59.09375 7.785156 59.316406 7.933594 59.507812 8.125 C 59.703125 8.320312 59.851562 8.542969 59.957031 8.796875 C 60.058594 9.050781 60.113281 9.3125 60.113281 9.589844 Z M 60.113281 9.589844 " fill-opacity="1" fill-rule="nonzero"/></g><path fill="#7e8589" d="M 39.488281 32.332031 L 37.425781 32.332031 C 36.859375 32.332031 36.394531 32.796875 36.394531 33.363281 L 36.394531 41.636719 C 36.394531 42.203125 36.859375 42.667969 37.425781 42.667969 C 37.992188 42.667969 38.457031 42.203125 38.457031 41.636719 L 38.457031 38.535156 L 39.488281 38.535156 C 41.1875 38.535156 42.582031 37.136719 42.582031 35.433594 C 42.582031 33.726562 41.1875 32.332031 39.488281 32.332031 Z M 39.488281 36.464844 L 38.457031 36.464844 L 38.457031 34.398438 L 39.488281 34.398438 C 40.054688 34.398438 40.519531 34.863281 40.519531 35.433594 C 40.519531 36 40.054688 36.464844 39.488281 36.464844 Z M 39.488281 36.464844 " fill-opacity="1" fill-rule="nonzero"/><path fill="#7e8589" d="M 45.675781 32.332031 C 45.109375 32.332031 44.644531 32.796875 44.644531 33.363281 L 44.644531 41.636719 C 44.644531 42.203125 45.109375 42.667969 45.675781 42.667969 C 46.242188 42.667969 46.707031 42.203125 46.707031 41.636719 L 46.707031 33.363281 C 46.707031 32.796875 46.242188 32.332031 45.675781 32.332031 Z M 45.675781 32.332031 " fill-opacity="1" fill-rule="nonzero"/><path fill="#7e8589" d="M 31.238281 32.332031 C 29.535156 32.332031 28.144531 33.726562 28.144531 35.433594 L 28.144531 41.636719 C 28.144531 42.203125 28.609375 42.667969 29.175781 42.667969 C 29.742188 42.667969 30.207031 42.203125 30.207031 41.636719 L 30.207031 38.535156 L 32.269531 38.535156 L 32.269531 41.636719 C 32.269531 42.203125 32.734375 42.667969 33.300781 42.667969 C 33.867188 42.667969 34.332031 42.203125 34.332031 41.636719 L 34.332031 35.433594 C 34.332031 33.726562 32.9375 32.332031 31.238281 32.332031 Z M 30.207031 36.464844 L 30.207031 35.433594 C 30.207031 34.863281 30.671875 34.398438 31.238281 34.398438 C 31.804688 34.398438 32.269531 34.863281 32.269531 35.433594 L 32.269531 36.464844 Z M 30.207031 36.464844 " fill-opacity="1" fill-rule="nonzero"/><g clip-path="url(#490bdb3523)"><path fill="#3397e8" d="M 54.957031 65.410156 C 54.957031 65.6875 54.902344 65.949219 54.800781 66.203125 C 54.695312 66.457031 54.546875 66.679688 54.351562 66.875 C 54.160156 67.066406 53.9375 67.214844 53.683594 67.320312 C 53.429688 67.425781 53.167969 67.480469 52.894531 67.480469 C 52.621094 67.480469 52.355469 67.425781 52.105469 67.320312 C 51.851562 67.214844 51.628906 67.066406 51.433594 66.875 C 51.242188 66.679688 51.09375 66.457031 50.988281 66.203125 C 50.882812 65.949219 50.832031 65.6875 50.832031 65.410156 C 50.832031 65.136719 50.882812 64.875 50.988281 64.621094 C 51.09375 64.367188 51.242188 64.144531 51.433594 63.949219 C 51.628906 63.753906 51.851562 63.605469 52.105469 63.5 C 52.355469 63.398438 52.621094 63.34375 52.894531 63.34375 C 53.167969 63.34375 53.429688 63.398438 53.683594 63.5 C 53.9375 63.605469 54.160156 63.753906 54.351562 63.949219 C 54.546875 64.144531 54.695312 64.367188 54.800781 64.621094 C 54.902344 64.875 54.957031 65.136719 54.957031 65.410156 Z M 54.957031 65.410156 " fill-opacity="1" fill-rule="nonzero"/></g><g clip-path="url(#1c575ce2d6)"><path fill="#3397e8" d="M 12.675781 57.140625 C 12.675781 57.414062 12.621094 57.679688 12.519531 57.933594 C 12.414062 58.1875 12.265625 58.410156 12.070312 58.601562 C 11.878906 58.796875 11.65625 58.945312 11.402344 59.050781 C 11.148438 59.15625 10.886719 59.207031 10.613281 59.207031 C 10.339844 59.207031 10.074219 59.15625 9.824219 59.050781 C 9.570312 58.945312 9.347656 58.796875 9.152344 58.601562 C 8.960938 58.410156 8.8125 58.1875 8.707031 57.933594 C 8.601562 57.679688 8.550781 57.414062 8.550781 57.140625 C 8.550781 56.867188 8.601562 56.605469 8.707031 56.351562 C 8.8125 56.097656 8.960938 55.875 9.152344 55.679688 C 9.347656 55.484375 9.570312 55.335938 9.824219 55.230469 C 10.074219 55.125 10.339844 55.074219 10.613281 55.074219 C 10.886719 55.074219 11.148438 55.125 11.402344 55.230469 C 11.65625 55.335938 11.878906 55.484375 12.070312 55.679688 C 12.265625 55.875 12.414062 56.097656 12.519531 56.351562 C 12.621094 56.605469 12.675781 56.867188 12.675781 57.140625 Z M 12.675781 57.140625 " fill-opacity="1" fill-rule="nonzero"/></g><g clip-path="url(#f5267f7a7a)"><path fill="#3397e8" d="M 66.300781 46.804688 C 66.300781 47.078125 66.246094 47.339844 66.144531 47.59375 C 66.039062 47.847656 65.890625 48.070312 65.695312 48.265625 C 65.503906 48.460938 65.28125 48.609375 65.027344 48.714844 C 64.773438 48.820312 64.511719 48.871094 64.238281 48.871094 C 63.964844 48.871094 63.699219 48.820312 63.449219 48.714844 C 63.195312 48.609375 62.972656 48.460938 62.777344 48.265625 C 62.585938 48.070312 62.4375 47.847656 62.332031 47.59375 C 62.226562 47.339844 62.175781 47.078125 62.175781 46.804688 C 62.175781 46.53125 62.226562 46.265625 62.332031 46.011719 C 62.4375 45.757812 62.585938 45.535156 62.777344 45.34375 C 62.972656 45.148438 63.195312 45 63.449219 44.894531 C 63.699219 44.789062 63.964844 44.734375 64.238281 44.734375 C 64.511719 44.734375 64.773438 44.789062 65.027344 44.894531 C 65.28125 45 65.503906 45.148438 65.695312 45.34375 C 65.890625 45.535156 66.039062 45.757812 66.144531 46.011719 C 66.246094 46.265625 66.300781 46.53125 66.300781 46.804688 Z M 66.300781 46.804688 " fill-opacity="1" fill-rule="nonzero"/></g><g clip-path="url(#d05156b46b)"><path fill="#3397e8" d="M 17.832031 9.589844 C 17.832031 9.863281 17.777344 10.125 17.675781 10.378906 C 17.570312 10.632812 17.421875 10.855469 17.226562 11.050781 C 17.035156 11.246094 16.8125 11.394531 16.558594 11.5 C 16.304688 11.601562 16.042969 11.65625 15.769531 11.65625 C 15.496094 11.65625 15.230469 11.601562 14.980469 11.5 C 14.726562 11.394531 14.503906 11.246094 14.308594 11.050781 C 14.117188 10.855469 13.96875 10.632812 13.863281 10.378906 C 13.757812 10.125 13.707031 9.863281 13.707031 9.589844 C 13.707031 9.3125 13.757812 9.050781 13.863281 8.796875 C 13.96875 8.542969 14.117188 8.320312 14.308594 8.125 C 14.503906 7.933594 14.726562 7.785156 14.980469 7.679688 C 15.230469 7.574219 15.496094 7.519531 15.769531 7.519531 C 16.042969 7.519531 16.304688 7.574219 16.558594 7.679688 C 16.8125 7.785156 17.035156 7.933594 17.226562 8.125 C 17.421875 8.320312 17.570312 8.542969 17.675781 8.796875 C 17.777344 9.050781 17.832031 9.3125 17.832031 9.589844 Z M 17.832031 9.589844 " fill-opacity="1" fill-rule="nonzero"/></g></svg>