<svg xmlns="http://www.w3.org/2000/svg" xmlns:xlink="http://www.w3.org/1999/xlink" width="100" zoomAndPan="magnify" viewBox="0 0 75 74.999997" height="100" preserveAspectRatio="xMidYMid meet" version="1.0"><defs><clipPath id="fe05859e0b"><path d="M 10 19.539062 L 65 19.539062 L 65 39 L 10 39 Z M 10 19.539062 " clip-rule="nonzero"/></clipPath><clipPath id="5c690ae69f"><path d="M 7.5 43 L 62 43 L 62 55.539062 L 7.5 55.539062 Z M 7.5 43 " clip-rule="nonzero"/></clipPath><clipPath id="04ecafca09"><path d="M 56 41 L 67.5 41 L 67.5 53 L 56 53 Z M 56 41 " clip-rule="nonzero"/></clipPath></defs><g clip-path="url(#fe05859e0b)"><path fill="#252f3e" d="M 24.554688 32.671875 C 24.554688 33.40625 24.632812 34 24.769531 34.433594 C 24.929688 34.871094 25.125 35.34375 25.402344 35.859375 C 25.5 36.015625 25.539062 36.175781 25.539062 36.3125 C 25.539062 36.511719 25.421875 36.707031 25.164062 36.90625 L 23.921875 37.738281 C 23.746094 37.855469 23.566406 37.914062 23.410156 37.914062 C 23.210938 37.914062 23.015625 37.816406 22.816406 37.636719 C 22.539062 37.339844 22.304688 37.023438 22.105469 36.707031 C 21.910156 36.371094 21.710938 35.996094 21.496094 35.542969 C 19.957031 37.363281 18.019531 38.269531 15.691406 38.269531 C 14.035156 38.269531 12.710938 37.796875 11.746094 36.847656 C 10.777344 35.898438 10.285156 34.632812 10.285156 33.050781 C 10.285156 31.367188 10.878906 30.003906 12.082031 28.976562 C 13.285156 27.945312 14.882812 27.433594 16.917969 27.433594 C 17.585938 27.433594 18.277344 27.492188 19.007812 27.589844 C 19.738281 27.6875 20.488281 27.847656 21.277344 28.023438 L 21.277344 26.582031 C 21.277344 25.078125 20.960938 24.03125 20.351562 23.417969 C 19.71875 22.804688 18.652344 22.507812 17.132812 22.507812 C 16.441406 22.507812 15.730469 22.585938 15 22.761719 C 14.273438 22.941406 13.5625 23.160156 12.871094 23.4375 C 12.554688 23.574219 12.316406 23.652344 12.179688 23.691406 C 12.042969 23.734375 11.941406 23.753906 11.863281 23.753906 C 11.585938 23.753906 11.449219 23.554688 11.449219 23.140625 L 11.449219 22.171875 C 11.449219 21.855469 11.488281 21.617188 11.585938 21.476562 C 11.6875 21.339844 11.863281 21.199219 12.140625 21.0625 C 12.832031 20.707031 13.660156 20.410156 14.628906 20.171875 C 15.59375 19.914062 16.621094 19.796875 17.707031 19.796875 C 20.054688 19.796875 21.769531 20.332031 22.875 21.398438 C 23.960938 22.46875 24.515625 24.089844 24.515625 26.265625 L 24.515625 32.671875 Z M 16.542969 35.679688 C 17.191406 35.679688 17.863281 35.5625 18.574219 35.324219 C 19.285156 35.085938 19.914062 34.652344 20.449219 34.058594 C 20.765625 33.683594 21 33.265625 21.121094 32.792969 C 21.238281 32.316406 21.316406 31.742188 21.316406 31.070312 L 21.316406 30.242188 C 20.746094 30.101562 20.132812 29.984375 19.5 29.90625 C 18.871094 29.824219 18.257812 29.785156 17.644531 29.785156 C 16.324219 29.785156 15.355469 30.042969 14.707031 30.578125 C 14.054688 31.109375 13.738281 31.863281 13.738281 32.851562 C 13.738281 33.78125 13.976562 34.472656 14.46875 34.949219 C 14.941406 35.441406 15.632812 35.679688 16.542969 35.679688 Z M 32.386719 37.816406 C 32.035156 37.816406 31.796875 37.757812 31.636719 37.617188 C 31.480469 37.5 31.34375 37.222656 31.222656 36.847656 L 26.585938 21.558594 C 26.46875 21.160156 26.410156 20.90625 26.410156 20.765625 C 26.410156 20.449219 26.566406 20.269531 26.882812 20.269531 L 28.816406 20.269531 C 29.191406 20.269531 29.449219 20.332031 29.585938 20.46875 C 29.742188 20.585938 29.863281 20.863281 29.980469 21.242188 L 33.296875 34.335938 L 36.375 21.242188 C 36.472656 20.84375 36.59375 20.585938 36.75 20.46875 C 36.90625 20.351562 37.183594 20.269531 37.539062 20.269531 L 39.117188 20.269531 C 39.492188 20.269531 39.75 20.332031 39.90625 20.46875 C 40.066406 20.585938 40.203125 20.863281 40.28125 21.242188 L 43.402344 34.492188 L 46.816406 21.242188 C 46.933594 20.84375 47.070312 20.585938 47.210938 20.46875 C 47.367188 20.351562 47.625 20.269531 47.980469 20.269531 L 49.816406 20.269531 C 50.128906 20.269531 50.308594 20.429688 50.308594 20.765625 C 50.308594 20.863281 50.289062 20.964844 50.269531 21.082031 C 50.25 21.199219 50.210938 21.359375 50.128906 21.578125 L 45.375 36.867188 C 45.257812 37.261719 45.117188 37.519531 44.960938 37.636719 C 44.800781 37.757812 44.546875 37.835938 44.210938 37.835938 L 42.511719 37.835938 C 42.136719 37.835938 41.882812 37.777344 41.722656 37.636719 C 41.566406 37.5 41.425781 37.242188 41.347656 36.847656 L 38.289062 24.089844 L 35.25 36.828125 C 35.152344 37.222656 35.03125 37.480469 34.875 37.617188 C 34.71875 37.757812 34.441406 37.816406 34.085938 37.816406 Z M 57.75 38.351562 C 56.722656 38.351562 55.695312 38.230469 54.710938 37.996094 C 53.722656 37.757812 52.953125 37.5 52.441406 37.203125 C 52.125 37.023438 51.90625 36.828125 51.828125 36.648438 C 51.75 36.472656 51.710938 36.273438 51.710938 36.09375 L 51.710938 35.085938 C 51.710938 34.671875 51.867188 34.472656 52.164062 34.472656 C 52.28125 34.472656 52.398438 34.492188 52.519531 34.53125 C 52.636719 34.574219 52.816406 34.652344 53.011719 34.730469 C 53.683594 35.027344 54.414062 35.265625 55.183594 35.421875 C 55.972656 35.582031 56.742188 35.660156 57.53125 35.660156 C 58.773438 35.660156 59.742188 35.441406 60.414062 35.007812 C 61.082031 34.574219 61.4375 33.941406 61.4375 33.128906 C 61.4375 32.574219 61.261719 32.121094 60.90625 31.742188 C 60.550781 31.367188 59.878906 31.03125 58.914062 30.714844 L 56.050781 29.824219 C 54.609375 29.371094 53.542969 28.699219 52.894531 27.808594 C 52.242188 26.9375 51.90625 25.96875 51.90625 24.941406 C 51.90625 24.109375 52.085938 23.375 52.441406 22.742188 C 52.792969 22.109375 53.269531 21.558594 53.859375 21.121094 C 54.453125 20.667969 55.125 20.332031 55.914062 20.09375 C 56.703125 19.855469 57.53125 19.757812 58.398438 19.757812 C 58.832031 19.757812 59.289062 19.777344 59.722656 19.835938 C 60.175781 19.894531 60.589844 19.976562 61.003906 20.054688 C 61.398438 20.152344 61.773438 20.25 62.128906 20.371094 C 62.484375 20.488281 62.761719 20.609375 62.957031 20.726562 C 63.234375 20.882812 63.433594 21.042969 63.550781 21.222656 C 63.667969 21.378906 63.726562 21.597656 63.726562 21.875 L 63.726562 22.804688 C 63.726562 23.21875 63.570312 23.4375 63.273438 23.4375 C 63.117188 23.4375 62.859375 23.355469 62.523438 23.199219 C 61.398438 22.683594 60.136719 22.425781 58.734375 22.425781 C 57.609375 22.425781 56.722656 22.605469 56.109375 22.980469 C 55.5 23.355469 55.183594 23.929688 55.183594 24.742188 C 55.183594 25.296875 55.378906 25.769531 55.773438 26.144531 C 56.167969 26.523438 56.898438 26.898438 57.945312 27.234375 L 60.746094 28.125 C 62.167969 28.578125 63.195312 29.210938 63.808594 30.023438 C 64.417969 30.832031 64.714844 31.761719 64.714844 32.792969 C 64.714844 33.644531 64.539062 34.414062 64.203125 35.085938 C 63.847656 35.757812 63.371094 36.351562 62.761719 36.828125 C 62.148438 37.320312 61.417969 37.679688 60.570312 37.933594 C 59.683594 38.210938 58.753906 38.351562 57.75 38.351562 Z M 57.75 38.351562 " fill-opacity="1" fill-rule="nonzero"/></g><g clip-path="url(#5c690ae69f)"><path fill="#ff9900" d="M 61.476562 47.964844 C 54.984375 52.769531 45.550781 55.320312 37.441406 55.320312 C 26.074219 55.320312 15.832031 51.109375 8.09375 44.105469 C 7.484375 43.550781 8.035156 42.800781 8.765625 43.234375 C 17.132812 48.101562 27.453125 51.050781 38.132812 51.050781 C 45.335938 51.050781 53.25 49.546875 60.53125 46.460938 C 61.617188 45.964844 62.542969 47.171875 61.476562 47.964844 Z M 61.476562 47.964844 " fill-opacity="1" fill-rule="evenodd"/></g><g clip-path="url(#04ecafca09)"><path fill="#ff9900" d="M 64.183594 44.878906 C 63.351562 43.808594 58.695312 44.363281 56.582031 44.621094 C 55.953125 44.699219 55.855469 44.144531 56.425781 43.730469 C 60.136719 41.121094 66.234375 41.871094 66.945312 42.742188 C 67.65625 43.632812 66.746094 49.742188 63.273438 52.671875 C 62.742188 53.125 62.226562 52.890625 62.464844 52.296875 C 63.253906 50.335938 65.011719 45.925781 64.183594 44.878906 Z M 64.183594 44.878906 " fill-opacity="1" fill-rule="evenodd"/></g></svg>