<svg xmlns="http://www.w3.org/2000/svg" xmlns:xlink="http://www.w3.org/1999/xlink" width="100" zoomAndPan="magnify" viewBox="0 0 75 74.999997" height="100" preserveAspectRatio="xMidYMid meet" version="1.0"><defs><clipPath id="619ca948e9"><path d="M 7.5 7.5 L 67.5 7.5 L 67.5 66 L 7.5 66 Z M 7.5 7.5 " clip-rule="nonzero"/></clipPath></defs><g clip-path="url(#619ca948e9)"><path fill="#24292f" d="M 37.410156 7.507812 C 20.871094 7.507812 7.5 20.910156 7.5 37.492188 C 7.5 50.746094 16.066406 61.964844 27.953125 65.933594 C 29.4375 66.234375 29.980469 65.289062 29.980469 64.496094 C 29.980469 63.800781 29.933594 61.417969 29.933594 58.9375 C 21.613281 60.722656 19.878906 55.363281 19.878906 55.363281 C 18.542969 51.886719 16.5625 50.992188 16.5625 50.992188 C 13.839844 49.15625 16.761719 49.15625 16.761719 49.15625 C 19.78125 49.355469 21.367188 52.234375 21.367188 52.234375 C 24.039062 56.800781 28.347656 55.511719 30.082031 54.714844 C 30.328125 52.78125 31.121094 51.441406 31.964844 50.695312 C 25.328125 50 18.34375 47.417969 18.34375 35.902344 C 18.34375 32.625 19.53125 29.945312 21.414062 27.859375 C 21.117188 27.117188 20.078125 24.039062 21.710938 19.917969 C 21.710938 19.917969 24.238281 19.125 29.933594 22.996094 C 32.382812 22.335938 34.875 22.007812 37.410156 22.003906 C 39.9375 22.003906 42.511719 22.351562 44.886719 22.996094 C 50.582031 19.125 53.109375 19.917969 53.109375 19.917969 C 54.742188 24.039062 53.703125 27.117188 53.40625 27.859375 C 55.335938 29.945312 56.476562 32.625 56.476562 35.902344 C 56.476562 47.417969 49.492188 49.949219 42.808594 50.695312 C 43.898438 51.640625 44.839844 53.425781 44.839844 56.253906 C 44.839844 60.277344 44.789062 63.503906 44.789062 64.496094 C 44.789062 65.289062 45.335938 66.234375 46.820312 65.933594 C 58.703125 61.964844 67.273438 50.746094 67.273438 37.492188 C 67.320312 20.910156 53.902344 7.507812 37.410156 7.507812 Z M 37.410156 7.507812 " fill-opacity="1" fill-rule="evenodd"/></g></svg>