<svg xmlns="http://www.w3.org/2000/svg" xmlns:xlink="http://www.w3.org/1999/xlink" width="100" zoomAndPan="magnify" viewBox="0 0 75 74.999997" height="100" preserveAspectRatio="xMidYMid meet" version="1.0"><defs><clipPath id="248fe2a382"><path d="M 7.5 8.101562 L 67.5 8.101562 L 67.5 66.601562 L 7.5 66.601562 Z M 7.5 8.101562 " clip-rule="nonzero"/></clipPath></defs><g clip-path="url(#248fe2a382)"><path fill="#ffffff" d="M 37.410156 8.109375 C 20.871094 8.109375 7.5 21.511719 7.5 38.089844 C 7.5 51.34375 16.066406 62.5625 27.953125 66.535156 C 29.4375 66.832031 29.980469 65.890625 29.980469 65.097656 C 29.980469 64.402344 29.933594 62.019531 29.933594 59.535156 C 21.613281 61.324219 19.878906 55.960938 19.878906 55.960938 C 18.542969 52.488281 16.5625 51.59375 16.5625 51.59375 C 13.839844 49.757812 16.761719 49.757812 16.761719 49.757812 C 19.78125 49.957031 21.367188 52.835938 21.367188 52.835938 C 24.039062 57.402344 28.347656 56.109375 30.082031 55.316406 C 30.328125 53.378906 31.121094 52.039062 31.964844 51.296875 C 25.328125 50.601562 18.34375 48.019531 18.34375 36.503906 C 18.34375 33.226562 19.53125 30.546875 21.414062 28.460938 C 21.117188 27.71875 20.078125 24.636719 21.710938 20.519531 C 21.710938 20.519531 24.238281 19.722656 29.933594 23.597656 C 32.382812 22.9375 34.875 22.605469 37.410156 22.601562 C 39.9375 22.601562 42.511719 22.949219 44.886719 23.597656 C 50.582031 19.722656 53.109375 20.519531 53.109375 20.519531 C 54.742188 24.636719 53.703125 27.71875 53.40625 28.460938 C 55.335938 30.546875 56.476562 33.226562 56.476562 36.503906 C 56.476562 48.019531 49.492188 50.550781 42.808594 51.296875 C 43.898438 52.238281 44.839844 54.027344 44.839844 56.855469 C 44.839844 60.875 44.789062 64.101562 44.789062 65.09375 C 44.789062 65.890625 45.335938 66.832031 46.820312 66.535156 C 58.703125 62.5625 67.273438 51.34375 67.273438 38.089844 C 67.320312 21.511719 53.902344 8.109375 37.410156 8.109375 Z M 37.410156 8.109375 " fill-opacity="1" fill-rule="evenodd"/></g></svg>