<svg xmlns="http://www.w3.org/2000/svg" xmlns:xlink="http://www.w3.org/1999/xlink" width="100" zoomAndPan="magnify" viewBox="0 0 75 74.999997" height="100" preserveAspectRatio="xMidYMid meet" version="1.0"><defs><clipPath id="e7addc6e7a"><path d="M 14 13.335938 L 53 13.335938 L 53 31 L 14 31 Z M 14 13.335938 " clip-rule="nonzero"/></clipPath><clipPath id="4dce94c566"><path d="M 36 19 L 67.5 19 L 67.5 61.335938 L 36 61.335938 Z M 36 19 " clip-rule="nonzero"/></clipPath><clipPath id="456389e342"><path d="M 14 50 L 38 50 L 38 61.335938 L 14 61.335938 Z M 14 50 " clip-rule="nonzero"/></clipPath><clipPath id="68aec6f943"><path d="M 7.5 27 L 38 27 L 38 58 L 7.5 58 Z M 7.5 27 " clip-rule="nonzero"/></clipPath></defs><g clip-path="url(#e7addc6e7a)"><path fill="#ea4335" d="M 47.402344 26.582031 L 52.617188 21.402344 L 52.964844 19.21875 C 43.460938 10.636719 28.355469 11.609375 19.785156 21.25 C 17.40625 23.929688 15.640625 27.269531 14.699219 30.71875 L 16.566406 30.457031 L 27 28.746094 L 27.804688 27.929688 C 32.441406 22.867188 40.289062 22.183594 45.644531 26.492188 Z M 47.402344 26.582031 " fill-opacity="1" fill-rule="nonzero"/></g><g clip-path="url(#4dce94c566)"><path fill="#4285f4" d="M 60.046875 30.566406 C 58.847656 26.179688 56.386719 22.238281 52.964844 19.21875 L 45.644531 26.492188 C 48.738281 29 50.496094 32.78125 50.421875 36.746094 L 50.421875 38.035156 C 54.019531 38.035156 56.9375 40.933594 56.9375 44.507812 C 56.9375 48.082031 54.019531 50.910156 50.421875 50.910156 L 37.375 50.910156 L 36.09375 52.289062 L 36.09375 60.054688 L 37.375 61.269531 L 50.421875 61.269531 C 59.78125 61.34375 67.425781 53.9375 67.5 44.640625 C 67.542969 39.003906 64.746094 33.722656 60.046875 30.566406 " fill-opacity="1" fill-rule="nonzero"/></g><g clip-path="url(#456389e342)"><path fill="#34a853" d="M 24.34375 61.269531 L 37.375 61.269531 L 37.375 50.910156 L 24.34375 50.910156 C 23.417969 50.910156 22.515625 50.710938 21.671875 50.328125 L 19.824219 50.890625 L 14.574219 56.070312 L 14.113281 57.835938 C 17.058594 60.042969 20.652344 61.289062 24.34375 61.269531 " fill-opacity="1" fill-rule="nonzero"/></g><g clip-path="url(#68aec6f943)"><path fill="#fbbc05" d="M 24.34375 27.65625 C 14.984375 27.710938 7.445312 35.292969 7.5 44.589844 C 7.53125 49.78125 9.972656 54.671875 14.113281 57.835938 L 21.671875 50.328125 C 18.394531 48.855469 16.9375 45.019531 18.417969 41.765625 C 19.898438 38.507812 23.757812 37.058594 27.039062 38.53125 C 28.480469 39.179688 29.640625 40.328125 30.292969 41.765625 L 37.851562 34.253906 C 34.632812 30.078125 29.636719 27.636719 24.34375 27.65625 " fill-opacity="1" fill-rule="nonzero"/></g></svg>