<svg xmlns="http://www.w3.org/2000/svg" xmlns:xlink="http://www.w3.org/1999/xlink" width="100" zoomAndPan="magnify" viewBox="0 0 75 74.999997" height="100" preserveAspectRatio="xMidYMid meet" version="1.0"><defs><clipPath id="ac695ba2ee"><path d="M 7.5 8.210938 L 67.5 8.210938 L 67.5 66.710938 L 7.5 66.710938 Z M 7.5 8.210938 " clip-rule="nonzero"/></clipPath></defs><g clip-path="url(#ac695ba2ee)"><path fill="#001e36" d="M 18.125 8.242188 L 56.875 8.242188 C 62.75 8.242188 67.5 12.988281 67.5 18.855469 L 67.5 56.0625 C 67.5 61.929688 62.75 66.675781 56.875 66.675781 L 18.125 66.675781 C 12.25 66.675781 7.5 61.929688 7.5 56.0625 L 7.5 18.855469 C 7.5 12.988281 12.25 8.242188 18.125 8.242188 Z M 18.125 8.242188 " fill-opacity="1" fill-rule="nonzero"/></g><path fill="#31a8ff" d="M 38.996094 49.542969 L 23.15625 49.542969 C 22.875 49.542969 22.757812 49.402344 22.757812 49.097656 L 22.757812 23.574219 C 22.734375 23.410156 22.851562 23.25 23.039062 23.226562 C 23.0625 23.226562 23.085938 23.226562 23.132812 23.226562 L 28.023438 23.226562 C 28.140625 23.203125 28.304688 23.296875 28.304688 23.433594 C 28.304688 23.457031 28.304688 23.480469 28.304688 23.503906 L 28.304688 44.472656 L 39.863281 44.472656 C 40.121094 44.472656 40.191406 44.585938 40.144531 44.820312 L 39.417969 49.167969 C 39.417969 49.285156 39.347656 49.402344 39.277344 49.472656 C 39.183594 49.519531 39.089844 49.542969 38.996094 49.542969 Z M 38.996094 49.542969 " fill-opacity="1" fill-rule="nonzero"/><path fill="#31a8ff" d="M 43 29.558594 L 47.375 29.558594 C 47.632812 29.558594 47.820312 29.722656 47.890625 29.957031 C 47.984375 30.121094 48.054688 30.332031 48.101562 30.539062 C 48.148438 30.796875 48.195312 31.054688 48.21875 31.3125 C 48.242188 31.59375 48.265625 31.894531 48.265625 32.199219 C 49.011719 31.335938 49.925781 30.609375 50.933594 30.050781 C 52.078125 29.417969 53.367188 29.113281 54.652344 29.160156 C 54.816406 29.136719 54.980469 29.253906 55.003906 29.441406 C 55.003906 29.464844 55.003906 29.488281 55.003906 29.535156 L 55.003906 34.421875 C 55.003906 34.632812 54.886719 34.699219 54.605469 34.699219 C 52.992188 34.609375 51.351562 34.910156 49.878906 35.542969 C 49.386719 35.777344 48.894531 36.058594 48.523438 36.476562 L 48.523438 49.214844 C 48.523438 49.472656 48.429688 49.566406 48.195312 49.566406 L 43.328125 49.566406 C 43.117188 49.589844 42.953125 49.472656 42.929688 49.261719 C 42.929688 49.238281 42.929688 49.191406 42.929688 49.167969 L 42.929688 35.332031 C 42.929688 34.722656 42.929688 34.117188 42.90625 33.460938 C 42.882812 32.808594 42.882812 32.152344 42.859375 31.523438 C 42.835938 30.960938 42.789062 30.425781 42.71875 29.863281 C 42.695312 29.746094 42.765625 29.605469 42.882812 29.582031 C 42.929688 29.535156 42.953125 29.535156 43 29.558594 Z M 43 29.558594 " fill-opacity="1" fill-rule="nonzero"/></svg>