<svg xmlns="http://www.w3.org/2000/svg" xmlns:xlink="http://www.w3.org/1999/xlink" width="100" zoomAndPan="magnify" viewBox="0 0 75 74.999997" height="100" preserveAspectRatio="xMidYMid meet" version="1.0"><defs><clipPath id="20216333c4"><path d="M 7.09375 7.867188 L 67.84375 7.867188 L 67.84375 67.117188 L 7.09375 67.117188 Z M 7.09375 7.867188 " clip-rule="nonzero"/></clipPath></defs><g clip-path="url(#20216333c4)"><path fill="#00005b" d="M 17.867188 7.867188 L 57.074219 7.867188 C 63.019531 7.867188 67.824219 12.679688 67.824219 18.628906 L 67.824219 56.359375 C 67.824219 62.308594 63.019531 67.117188 57.074219 67.117188 L 17.867188 67.117188 C 11.921875 67.117188 7.113281 62.308594 7.113281 56.359375 L 7.113281 18.628906 C 7.113281 12.679688 11.921875 7.867188 17.867188 7.867188 Z M 17.867188 7.867188 " fill-opacity="1" fill-rule="nonzero"/></g><path fill="#9999ff" d="M 21.535156 49.394531 L 21.535156 23.316406 C 21.535156 23.136719 21.609375 23.035156 21.785156 23.035156 C 22.214844 23.035156 22.621094 23.035156 23.203125 23.011719 C 23.808594 22.984375 24.441406 22.984375 25.125 22.960938 C 25.808594 22.933594 26.542969 22.933594 27.328125 22.910156 C 28.109375 22.882812 28.871094 22.882812 29.628906 22.882812 C 31.703125 22.882812 33.421875 23.136719 34.839844 23.667969 C 36.105469 24.097656 37.269531 24.808594 38.230469 25.746094 C 39.039062 26.554688 39.671875 27.542969 40.074219 28.632812 C 40.457031 29.695312 40.65625 30.785156 40.65625 31.921875 C 40.65625 34.101562 40.152344 35.898438 39.140625 37.316406 C 38.128906 38.734375 36.710938 39.796875 35.066406 40.40625 C 33.347656 41.039062 31.449219 41.265625 29.375 41.265625 C 28.769531 41.265625 28.363281 41.265625 28.109375 41.242188 C 27.859375 41.214844 27.503906 41.214844 27.023438 41.214844 L 27.023438 49.34375 C 27.046875 49.519531 26.921875 49.671875 26.746094 49.699219 L 21.835938 49.699219 C 21.636719 49.699219 21.535156 49.597656 21.535156 49.371094 Z M 27.046875 27.949219 L 27.046875 36.457031 C 27.402344 36.480469 27.730469 36.507812 28.035156 36.507812 L 29.375 36.507812 C 30.363281 36.507812 31.347656 36.355469 32.285156 36.050781 C 33.09375 35.824219 33.800781 35.34375 34.359375 34.707031 C 34.890625 34.074219 35.144531 33.214844 35.144531 32.101562 C 35.167969 31.316406 34.964844 30.53125 34.5625 29.847656 C 34.132812 29.1875 33.523438 28.683594 32.789062 28.402344 C 31.855469 28.023438 30.84375 27.871094 29.804688 27.898438 C 29.148438 27.898438 28.566406 27.898438 28.085938 27.921875 C 27.578125 27.898438 27.226562 27.921875 27.046875 27.949219 Z M 27.046875 27.949219 " fill-opacity="1" fill-rule="nonzero"/><path fill="#9999ff" d="M 44.300781 29.441406 L 48.726562 29.441406 C 48.980469 29.441406 49.183594 29.621094 49.257812 29.847656 C 49.335938 30.050781 49.382812 30.253906 49.410156 30.480469 C 49.460938 30.734375 49.511719 31.011719 49.535156 31.265625 C 49.5625 31.542969 49.585938 31.847656 49.585938 32.175781 C 50.347656 31.289062 51.257812 30.554688 52.292969 30 C 53.457031 29.339844 54.796875 29.011719 56.140625 29.011719 C 56.316406 28.988281 56.46875 29.113281 56.492188 29.289062 L 56.492188 34.328125 C 56.492188 34.53125 56.367188 34.609375 56.089844 34.609375 C 55.175781 34.582031 54.242188 34.660156 53.355469 34.859375 C 52.621094 35.011719 51.914062 35.242188 51.230469 35.542969 C 50.75 35.773438 50.296875 36.078125 49.941406 36.480469 L 49.941406 49.394531 C 49.941406 49.648438 49.839844 49.75 49.613281 49.75 L 44.628906 49.75 C 44.425781 49.773438 44.25 49.648438 44.222656 49.445312 L 44.222656 35.316406 C 44.222656 34.707031 44.222656 34.074219 44.199219 33.417969 C 44.171875 32.757812 44.171875 32.101562 44.148438 31.441406 C 44.148438 30.859375 44.097656 30.304688 44.046875 29.722656 C 44.023438 29.59375 44.097656 29.46875 44.222656 29.441406 C 44.222656 29.417969 44.273438 29.417969 44.300781 29.441406 Z M 44.300781 29.441406 " fill-opacity="1" fill-rule="nonzero"/></svg>