<svg xmlns="http://www.w3.org/2000/svg" xmlns:xlink="http://www.w3.org/1999/xlink" width="100" zoomAndPan="magnify" viewBox="0 0 75 74.999997" height="100" preserveAspectRatio="xMidYMid meet" version="1.0"><defs><clipPath id="4d39b6f5a5"><path d="M 7.5 8.261719 L 67.5 8.261719 L 67.5 66.761719 L 7.5 66.761719 Z M 7.5 8.261719 " clip-rule="nonzero"/></clipPath></defs><g clip-path="url(#4d39b6f5a5)"><path fill="#001e36" d="M 18.136719 8.261719 L 56.863281 8.261719 C 62.734375 8.261719 67.480469 13.011719 67.480469 18.886719 L 67.480469 56.136719 C 67.480469 62.011719 62.734375 66.761719 56.863281 66.761719 L 18.136719 66.761719 C 12.265625 66.761719 7.519531 62.011719 7.519531 56.136719 L 7.519531 18.886719 C 7.519531 13.011719 12.265625 8.261719 18.136719 8.261719 Z M 18.136719 8.261719 " fill-opacity="1" fill-rule="nonzero"/></g><path fill="#31a8ff" d="M 21.011719 49.289062 L 21.011719 23.5625 C 21.011719 23.386719 21.085938 23.289062 21.257812 23.289062 C 21.683594 23.289062 22.085938 23.289062 22.660156 23.261719 C 23.257812 23.238281 23.882812 23.238281 24.558594 23.214844 C 25.230469 23.1875 25.957031 23.1875 26.730469 23.164062 C 27.507812 23.136719 28.253906 23.136719 29.003906 23.136719 C 31.054688 23.136719 32.753906 23.386719 34.152344 23.914062 C 35.402344 24.339844 36.550781 25.039062 37.5 25.964844 C 38.300781 26.761719 38.925781 27.738281 39.324219 28.8125 C 39.699219 29.863281 39.898438 30.9375 39.898438 32.0625 C 39.898438 34.214844 39.398438 35.988281 38.398438 37.386719 C 37.398438 38.789062 36 39.839844 34.375 40.4375 C 32.679688 41.0625 30.804688 41.289062 28.753906 41.289062 C 28.15625 41.289062 27.753906 41.289062 27.507812 41.261719 C 27.257812 41.238281 26.90625 41.238281 26.433594 41.238281 L 26.433594 49.261719 C 26.457031 49.4375 26.332031 49.589844 26.15625 49.613281 C 26.132812 49.613281 26.105469 49.613281 26.058594 49.613281 L 21.308594 49.613281 C 21.109375 49.613281 21.011719 49.511719 21.011719 49.289062 Z M 26.457031 28.113281 L 26.457031 36.511719 C 26.804688 36.539062 27.132812 36.5625 27.429688 36.5625 L 28.753906 36.5625 C 29.730469 36.5625 30.703125 36.414062 31.628906 36.113281 C 32.429688 35.886719 33.128906 35.414062 33.675781 34.789062 C 34.203125 34.164062 34.453125 33.3125 34.453125 32.214844 C 34.476562 31.4375 34.277344 30.664062 33.878906 29.988281 C 33.453125 29.339844 32.851562 28.839844 32.128906 28.5625 C 31.203125 28.1875 30.203125 28.039062 29.179688 28.0625 C 28.53125 28.0625 27.957031 28.0625 27.480469 28.089844 C 26.980469 28.0625 26.632812 28.089844 26.457031 28.113281 Z M 26.457031 28.113281 " fill-opacity="1" fill-rule="nonzero"/><path fill="#31a8ff" d="M 55.488281 34.988281 C 54.738281 34.589844 53.941406 34.3125 53.089844 34.136719 C 52.167969 33.9375 51.242188 33.8125 50.292969 33.8125 C 49.792969 33.789062 49.269531 33.863281 48.792969 33.988281 C 48.46875 34.0625 48.195312 34.238281 48.019531 34.488281 C 47.894531 34.6875 47.820312 34.9375 47.820312 35.164062 C 47.820312 35.386719 47.917969 35.613281 48.070312 35.8125 C 48.292969 36.089844 48.59375 36.3125 48.917969 36.488281 C 49.492188 36.789062 50.09375 37.0625 50.691406 37.3125 C 52.042969 37.761719 53.339844 38.386719 54.539062 39.136719 C 55.363281 39.664062 56.039062 40.363281 56.511719 41.214844 C 56.914062 42.011719 57.113281 42.886719 57.089844 43.789062 C 57.113281 44.964844 56.761719 46.136719 56.113281 47.113281 C 55.414062 48.113281 54.441406 48.886719 53.316406 49.339844 C 52.089844 49.863281 50.59375 50.136719 48.792969 50.136719 C 47.644531 50.136719 46.519531 50.039062 45.394531 49.8125 C 44.519531 49.664062 43.644531 49.386719 42.847656 49.011719 C 42.671875 48.914062 42.546875 48.738281 42.570312 48.539062 L 42.570312 44.1875 C 42.570312 44.113281 42.597656 44.011719 42.671875 43.964844 C 42.746094 43.914062 42.820312 43.9375 42.898438 43.988281 C 43.871094 44.5625 44.894531 44.964844 45.996094 45.214844 C 46.945312 45.464844 47.945312 45.589844 48.941406 45.589844 C 49.890625 45.589844 50.566406 45.464844 51.015625 45.238281 C 51.417969 45.0625 51.691406 44.636719 51.691406 44.1875 C 51.691406 43.839844 51.492188 43.511719 51.09375 43.1875 C 50.691406 42.863281 49.867188 42.488281 48.644531 42.011719 C 47.367188 41.5625 46.195312 40.964844 45.09375 40.214844 C 44.320312 39.664062 43.671875 38.9375 43.195312 38.089844 C 42.796875 37.289062 42.597656 36.414062 42.621094 35.539062 C 42.621094 34.464844 42.921875 33.4375 43.472656 32.511719 C 44.097656 31.511719 45.019531 30.714844 46.09375 30.214844 C 47.269531 29.613281 48.742188 29.339844 50.515625 29.339844 C 51.542969 29.339844 52.589844 29.414062 53.617188 29.5625 C 54.363281 29.664062 55.089844 29.863281 55.765625 30.136719 C 55.863281 30.164062 55.964844 30.261719 56.015625 30.363281 C 56.039062 30.464844 56.0625 30.5625 56.0625 30.664062 L 56.0625 34.738281 C 56.0625 34.839844 56.015625 34.9375 55.9375 34.988281 C 55.714844 35.039062 55.589844 35.039062 55.488281 34.988281 Z M 55.488281 34.988281 " fill-opacity="1" fill-rule="nonzero"/></svg>